<mxfile host="app.diagrams.net" agent="Mozilla/5.0 (Windows NT 10.0; Win64; x64; rv:138.0) Gecko/20100101 Firefox/138.0" version="27.0.8">
  <diagram name="Page-1" id="qfyWPmSnEnzVXrwLooYg">
    <mxGraphModel dx="1426" dy="751" grid="1" gridSize="10" guides="1" tooltips="1" connect="1" arrows="1" fold="1" page="1" pageScale="1" pageWidth="850" pageHeight="1100" math="0" shadow="0">
      <root>
        <mxCell id="0" />
        <mxCell id="1" parent="0" />
        <mxCell id="MYMOYsETfxv60rh2h-rH-11" value="parLapply" style="swimlane;whiteSpace=wrap;html=1;" vertex="1" parent="1">
          <mxGeometry x="20" width="820" height="220" as="geometry" />
        </mxCell>
        <mxCell id="MYMOYsETfxv60rh2h-rH-1" value="Input" style="shape=cylinder3;whiteSpace=wrap;html=1;boundedLbl=1;backgroundOutline=1;size=15;shadow=0;fillColor=#0050ef;fontColor=#ffffff;strokeColor=#001DBC;" vertex="1" parent="MYMOYsETfxv60rh2h-rH-11">
          <mxGeometry x="40" y="60" width="130" height="110" as="geometry" />
        </mxCell>
        <mxCell id="MYMOYsETfxv60rh2h-rH-2" value="" style="endArrow=classic;html=1;rounded=0;exitX=1;exitY=0.5;exitDx=0;exitDy=0;exitPerimeter=0;entryX=0;entryY=0.5;entryDx=0;entryDy=0;entryPerimeter=0;" edge="1" parent="MYMOYsETfxv60rh2h-rH-11" source="MYMOYsETfxv60rh2h-rH-1" target="MYMOYsETfxv60rh2h-rH-5">
          <mxGeometry width="50" height="50" relative="1" as="geometry">
            <mxPoint x="450" y="280" as="sourcePoint" />
            <mxPoint x="300" y="115" as="targetPoint" />
          </mxGeometry>
        </mxCell>
        <mxCell id="MYMOYsETfxv60rh2h-rH-9" value="" style="endArrow=classic;html=1;rounded=0;exitX=1;exitY=0.5;exitDx=0;exitDy=0;exitPerimeter=0;entryX=0;entryY=0.5;entryDx=0;entryDy=0;entryPerimeter=0;" edge="1" parent="MYMOYsETfxv60rh2h-rH-11" source="MYMOYsETfxv60rh2h-rH-1" target="MYMOYsETfxv60rh2h-rH-7">
          <mxGeometry width="50" height="50" relative="1" as="geometry">
            <mxPoint x="250" y="265" as="sourcePoint" />
            <mxPoint x="390" y="200" as="targetPoint" />
          </mxGeometry>
        </mxCell>
        <mxCell id="MYMOYsETfxv60rh2h-rH-10" value="" style="endArrow=classic;html=1;rounded=0;exitX=1;exitY=0.5;exitDx=0;exitDy=0;exitPerimeter=0;entryX=0;entryY=0.5;entryDx=0;entryDy=0;entryPerimeter=0;" edge="1" parent="MYMOYsETfxv60rh2h-rH-11" source="MYMOYsETfxv60rh2h-rH-1" target="MYMOYsETfxv60rh2h-rH-8">
          <mxGeometry width="50" height="50" relative="1" as="geometry">
            <mxPoint x="230" y="245" as="sourcePoint" />
            <mxPoint x="370" y="180" as="targetPoint" />
          </mxGeometry>
        </mxCell>
        <mxCell id="MYMOYsETfxv60rh2h-rH-13" value="Processing" style="shape=parallelogram;perimeter=parallelogramPerimeter;whiteSpace=wrap;html=1;fixedSize=1;" vertex="1" parent="MYMOYsETfxv60rh2h-rH-11">
          <mxGeometry x="420" y="35" width="90" height="40" as="geometry" />
        </mxCell>
        <mxCell id="MYMOYsETfxv60rh2h-rH-14" value="Processing" style="shape=parallelogram;perimeter=parallelogramPerimeter;whiteSpace=wrap;html=1;fixedSize=1;" vertex="1" parent="MYMOYsETfxv60rh2h-rH-11">
          <mxGeometry x="420" y="92.5" width="90" height="40" as="geometry" />
        </mxCell>
        <mxCell id="MYMOYsETfxv60rh2h-rH-16" value="Processing" style="shape=parallelogram;perimeter=parallelogramPerimeter;whiteSpace=wrap;html=1;fixedSize=1;" vertex="1" parent="MYMOYsETfxv60rh2h-rH-11">
          <mxGeometry x="410" y="150" width="90" height="40" as="geometry" />
        </mxCell>
        <mxCell id="MYMOYsETfxv60rh2h-rH-18" value="&lt;sup&gt;Output&lt;/sup&gt;" style="shape=cylinder3;whiteSpace=wrap;html=1;boundedLbl=1;backgroundOutline=1;size=15;shadow=0;fillColor=#0050ef;fontColor=#ffffff;strokeColor=#001DBC;" vertex="1" parent="MYMOYsETfxv60rh2h-rH-11">
          <mxGeometry x="600" y="60" width="130" height="110" as="geometry" />
        </mxCell>
        <mxCell id="MYMOYsETfxv60rh2h-rH-19" value="" style="endArrow=classic;html=1;rounded=0;exitX=1;exitY=0.5;exitDx=0;exitDy=0;entryX=0;entryY=0.5;entryDx=0;entryDy=0;entryPerimeter=0;" edge="1" parent="MYMOYsETfxv60rh2h-rH-11" source="MYMOYsETfxv60rh2h-rH-13" target="MYMOYsETfxv60rh2h-rH-18">
          <mxGeometry width="50" height="50" relative="1" as="geometry">
            <mxPoint x="350" y="160" as="sourcePoint" />
            <mxPoint x="400" y="110" as="targetPoint" />
          </mxGeometry>
        </mxCell>
        <mxCell id="MYMOYsETfxv60rh2h-rH-20" value="" style="endArrow=classic;html=1;rounded=0;exitX=1;exitY=0.5;exitDx=0;exitDy=0;entryX=0;entryY=0.5;entryDx=0;entryDy=0;entryPerimeter=0;" edge="1" parent="MYMOYsETfxv60rh2h-rH-11" source="MYMOYsETfxv60rh2h-rH-14" target="MYMOYsETfxv60rh2h-rH-18">
          <mxGeometry width="50" height="50" relative="1" as="geometry">
            <mxPoint x="540" y="180" as="sourcePoint" />
            <mxPoint x="620" y="245" as="targetPoint" />
          </mxGeometry>
        </mxCell>
        <mxCell id="MYMOYsETfxv60rh2h-rH-21" value="" style="endArrow=classic;html=1;rounded=0;exitX=1;exitY=0.5;exitDx=0;exitDy=0;entryX=0;entryY=0.5;entryDx=0;entryDy=0;entryPerimeter=0;" edge="1" parent="MYMOYsETfxv60rh2h-rH-11" source="MYMOYsETfxv60rh2h-rH-16" target="MYMOYsETfxv60rh2h-rH-18">
          <mxGeometry width="50" height="50" relative="1" as="geometry">
            <mxPoint x="540" y="200" as="sourcePoint" />
            <mxPoint x="620" y="265" as="targetPoint" />
          </mxGeometry>
        </mxCell>
        <mxCell id="MYMOYsETfxv60rh2h-rH-8" value="Input&lt;sub&gt;3&lt;/sub&gt;" style="shape=cylinder3;whiteSpace=wrap;html=1;boundedLbl=1;backgroundOutline=1;size=15;shadow=0;fillColor=#1ba1e2;fontColor=#ffffff;strokeColor=#006EAF;" vertex="1" parent="MYMOYsETfxv60rh2h-rH-11">
          <mxGeometry x="270" y="150" width="80" height="50" as="geometry" />
        </mxCell>
        <mxCell id="MYMOYsETfxv60rh2h-rH-7" value="Input&lt;sub&gt;2&lt;/sub&gt;" style="shape=cylinder3;whiteSpace=wrap;html=1;boundedLbl=1;backgroundOutline=1;size=15;shadow=0;fillColor=#6a00ff;fontColor=#ffffff;strokeColor=#3700CC;" vertex="1" parent="MYMOYsETfxv60rh2h-rH-11">
          <mxGeometry x="270" y="90" width="80" height="45" as="geometry" />
        </mxCell>
        <mxCell id="MYMOYsETfxv60rh2h-rH-15" value="" style="endArrow=classic;html=1;rounded=0;entryX=0;entryY=0.5;entryDx=0;entryDy=0;exitX=1;exitY=0.5;exitDx=0;exitDy=0;exitPerimeter=0;" edge="1" parent="MYMOYsETfxv60rh2h-rH-11" target="MYMOYsETfxv60rh2h-rH-14" source="MYMOYsETfxv60rh2h-rH-7">
          <mxGeometry width="50" height="50" relative="1" as="geometry">
            <mxPoint x="360" y="115" as="sourcePoint" />
            <mxPoint x="430" y="123" as="targetPoint" />
          </mxGeometry>
        </mxCell>
        <mxCell id="MYMOYsETfxv60rh2h-rH-63" value="" style="endArrow=classic;html=1;rounded=0;entryX=0;entryY=0.5;entryDx=0;entryDy=0;exitX=1;exitY=0;exitDx=0;exitDy=22.5;exitPerimeter=0;" edge="1" parent="MYMOYsETfxv60rh2h-rH-11" source="MYMOYsETfxv60rh2h-rH-8" target="MYMOYsETfxv60rh2h-rH-16">
          <mxGeometry width="50" height="50" relative="1" as="geometry">
            <mxPoint x="430" y="150" as="sourcePoint" />
            <mxPoint x="500" y="157" as="targetPoint" />
          </mxGeometry>
        </mxCell>
        <mxCell id="MYMOYsETfxv60rh2h-rH-5" value="Input&lt;sub&gt;1&lt;/sub&gt;" style="shape=cylinder3;whiteSpace=wrap;html=1;boundedLbl=1;backgroundOutline=1;size=15;shadow=0;fillColor=#008a00;fontColor=#ffffff;strokeColor=#005700;" vertex="1" parent="MYMOYsETfxv60rh2h-rH-11">
          <mxGeometry x="270" y="30" width="80" height="50" as="geometry" />
        </mxCell>
        <mxCell id="MYMOYsETfxv60rh2h-rH-12" value="" style="endArrow=classic;html=1;rounded=0;exitX=1;exitY=0.5;exitDx=0;exitDy=0;exitPerimeter=0;entryX=0;entryY=0.5;entryDx=0;entryDy=0;" edge="1" parent="MYMOYsETfxv60rh2h-rH-11" source="MYMOYsETfxv60rh2h-rH-5" target="MYMOYsETfxv60rh2h-rH-13">
          <mxGeometry width="50" height="50" relative="1" as="geometry">
            <mxPoint x="470" y="250" as="sourcePoint" />
            <mxPoint x="430" y="58" as="targetPoint" />
          </mxGeometry>
        </mxCell>
        <mxCell id="MYMOYsETfxv60rh2h-rH-73" value="Distributed Workers" style="swimlane;horizontal=0;whiteSpace=wrap;html=1;" vertex="1" parent="MYMOYsETfxv60rh2h-rH-11">
          <mxGeometry x="220" y="20" width="360" height="200" as="geometry" />
        </mxCell>
        <mxCell id="MYMOYsETfxv60rh2h-rH-47" value="foreach on socket cluster" style="swimlane;whiteSpace=wrap;html=1;" vertex="1" parent="1">
          <mxGeometry x="20" y="220" width="820" height="250" as="geometry" />
        </mxCell>
        <mxCell id="MYMOYsETfxv60rh2h-rH-42" value="Input&lt;sub&gt;1&lt;/sub&gt;" style="shape=cylinder3;whiteSpace=wrap;html=1;boundedLbl=1;backgroundOutline=1;size=15;shadow=0;fillColor=#008a00;fontColor=#ffffff;strokeColor=#005700;" vertex="1" parent="MYMOYsETfxv60rh2h-rH-47">
          <mxGeometry x="380" y="47.5" width="80" height="42.5" as="geometry" />
        </mxCell>
        <mxCell id="MYMOYsETfxv60rh2h-rH-43" value="Input&lt;sub&gt;2&lt;/sub&gt;" style="shape=cylinder3;whiteSpace=wrap;html=1;boundedLbl=1;backgroundOutline=1;size=15;shadow=0;fillColor=#6a00ff;fontColor=#ffffff;strokeColor=#3700CC;" vertex="1" parent="MYMOYsETfxv60rh2h-rH-47">
          <mxGeometry x="380" y="115" width="80" height="45" as="geometry" />
        </mxCell>
        <mxCell id="MYMOYsETfxv60rh2h-rH-44" value="Input&lt;sub&gt;3&lt;/sub&gt;" style="shape=cylinder3;whiteSpace=wrap;html=1;boundedLbl=1;backgroundOutline=1;size=15;shadow=0;fillColor=#1ba1e2;fontColor=#ffffff;strokeColor=#006EAF;" vertex="1" parent="MYMOYsETfxv60rh2h-rH-47">
          <mxGeometry x="380" y="190" width="80" height="50" as="geometry" />
        </mxCell>
        <mxCell id="MYMOYsETfxv60rh2h-rH-48" value="Processing" style="shape=parallelogram;perimeter=parallelogramPerimeter;whiteSpace=wrap;html=1;fixedSize=1;" vertex="1" parent="MYMOYsETfxv60rh2h-rH-47">
          <mxGeometry x="530" y="47.5" width="90" height="40" as="geometry" />
        </mxCell>
        <mxCell id="MYMOYsETfxv60rh2h-rH-49" value="Processing" style="shape=parallelogram;perimeter=parallelogramPerimeter;whiteSpace=wrap;html=1;fixedSize=1;" vertex="1" parent="MYMOYsETfxv60rh2h-rH-47">
          <mxGeometry x="520" y="117.5" width="90" height="40" as="geometry" />
        </mxCell>
        <mxCell id="MYMOYsETfxv60rh2h-rH-50" value="Processing" style="shape=parallelogram;perimeter=parallelogramPerimeter;whiteSpace=wrap;html=1;fixedSize=1;" vertex="1" parent="MYMOYsETfxv60rh2h-rH-47">
          <mxGeometry x="510" y="192.5" width="90" height="40" as="geometry" />
        </mxCell>
        <mxCell id="MYMOYsETfxv60rh2h-rH-51" value="" style="endArrow=classic;html=1;rounded=0;entryX=0;entryY=0.5;entryDx=0;entryDy=0;exitX=1;exitY=0;exitDx=0;exitDy=22.5;exitPerimeter=0;" edge="1" parent="MYMOYsETfxv60rh2h-rH-47" target="MYMOYsETfxv60rh2h-rH-50" source="MYMOYsETfxv60rh2h-rH-44">
          <mxGeometry width="50" height="50" relative="1" as="geometry">
            <mxPoint x="470" y="210" as="sourcePoint" />
            <mxPoint x="530" y="218" as="targetPoint" />
          </mxGeometry>
        </mxCell>
        <mxCell id="MYMOYsETfxv60rh2h-rH-52" value="&lt;sup&gt;Output&lt;/sup&gt;" style="shape=cylinder3;whiteSpace=wrap;html=1;boundedLbl=1;backgroundOutline=1;size=15;shadow=0;fillColor=#0050ef;fontColor=#ffffff;strokeColor=#001DBC;" vertex="1" parent="MYMOYsETfxv60rh2h-rH-47">
          <mxGeometry x="680" y="82.5" width="130" height="110" as="geometry" />
        </mxCell>
        <mxCell id="MYMOYsETfxv60rh2h-rH-53" value="" style="endArrow=classic;html=1;rounded=0;exitX=1;exitY=0.5;exitDx=0;exitDy=0;entryX=0;entryY=0.5;entryDx=0;entryDy=0;entryPerimeter=0;" edge="1" parent="MYMOYsETfxv60rh2h-rH-47" source="MYMOYsETfxv60rh2h-rH-48" target="MYMOYsETfxv60rh2h-rH-52">
          <mxGeometry width="50" height="50" relative="1" as="geometry">
            <mxPoint x="460" y="190" as="sourcePoint" />
            <mxPoint x="510" y="140" as="targetPoint" />
          </mxGeometry>
        </mxCell>
        <mxCell id="MYMOYsETfxv60rh2h-rH-54" value="" style="endArrow=classic;html=1;rounded=0;exitX=1;exitY=0.5;exitDx=0;exitDy=0;entryX=0;entryY=0.5;entryDx=0;entryDy=0;entryPerimeter=0;" edge="1" parent="MYMOYsETfxv60rh2h-rH-47" source="MYMOYsETfxv60rh2h-rH-49" target="MYMOYsETfxv60rh2h-rH-52">
          <mxGeometry width="50" height="50" relative="1" as="geometry">
            <mxPoint x="650" y="210" as="sourcePoint" />
            <mxPoint x="730" y="275" as="targetPoint" />
          </mxGeometry>
        </mxCell>
        <mxCell id="MYMOYsETfxv60rh2h-rH-55" value="" style="endArrow=classic;html=1;rounded=0;exitX=1;exitY=0.5;exitDx=0;exitDy=0;entryX=0;entryY=0.5;entryDx=0;entryDy=0;entryPerimeter=0;" edge="1" parent="MYMOYsETfxv60rh2h-rH-47" source="MYMOYsETfxv60rh2h-rH-50" target="MYMOYsETfxv60rh2h-rH-52">
          <mxGeometry width="50" height="50" relative="1" as="geometry">
            <mxPoint x="650" y="230" as="sourcePoint" />
            <mxPoint x="730" y="295" as="targetPoint" />
          </mxGeometry>
        </mxCell>
        <mxCell id="MYMOYsETfxv60rh2h-rH-56" value="" style="endArrow=classic;html=1;rounded=0;exitX=1;exitY=0.5;exitDx=0;exitDy=0;exitPerimeter=0;entryX=0;entryY=0.5;entryDx=0;entryDy=0;" edge="1" parent="MYMOYsETfxv60rh2h-rH-47" source="MYMOYsETfxv60rh2h-rH-42" target="MYMOYsETfxv60rh2h-rH-48">
          <mxGeometry width="50" height="50" relative="1" as="geometry">
            <mxPoint x="580" y="267.5" as="sourcePoint" />
            <mxPoint x="540" y="75.5" as="targetPoint" />
          </mxGeometry>
        </mxCell>
        <mxCell id="MYMOYsETfxv60rh2h-rH-57" value="" style="endArrow=classic;html=1;rounded=0;entryX=0;entryY=0.5;entryDx=0;entryDy=0;exitX=1;exitY=0.5;exitDx=0;exitDy=0;exitPerimeter=0;" edge="1" parent="MYMOYsETfxv60rh2h-rH-47" source="MYMOYsETfxv60rh2h-rH-43" target="MYMOYsETfxv60rh2h-rH-49">
          <mxGeometry width="50" height="50" relative="1" as="geometry">
            <mxPoint x="470" y="145" as="sourcePoint" />
            <mxPoint x="540" y="153" as="targetPoint" />
          </mxGeometry>
        </mxCell>
        <mxCell id="MYMOYsETfxv60rh2h-rH-58" value="Input" style="shape=cylinder3;whiteSpace=wrap;html=1;boundedLbl=1;backgroundOutline=1;size=15;shadow=0;fillColor=#0050ef;fontColor=#ffffff;strokeColor=#001DBC;" vertex="1" parent="MYMOYsETfxv60rh2h-rH-47">
          <mxGeometry x="230" y="35" width="100" height="65" as="geometry" />
        </mxCell>
        <mxCell id="MYMOYsETfxv60rh2h-rH-40" value="Input" style="shape=cylinder3;whiteSpace=wrap;html=1;boundedLbl=1;backgroundOutline=1;size=15;shadow=0;fillColor=#0050ef;fontColor=#ffffff;strokeColor=#001DBC;" vertex="1" parent="MYMOYsETfxv60rh2h-rH-47">
          <mxGeometry x="30" y="82.5" width="130" height="110" as="geometry" />
        </mxCell>
        <mxCell id="MYMOYsETfxv60rh2h-rH-64" value="Input" style="shape=cylinder3;whiteSpace=wrap;html=1;boundedLbl=1;backgroundOutline=1;size=15;shadow=0;fillColor=#0050ef;fontColor=#ffffff;strokeColor=#001DBC;" vertex="1" parent="MYMOYsETfxv60rh2h-rH-47">
          <mxGeometry x="230" y="105" width="100" height="65" as="geometry" />
        </mxCell>
        <mxCell id="MYMOYsETfxv60rh2h-rH-65" value="Input" style="shape=cylinder3;whiteSpace=wrap;html=1;boundedLbl=1;backgroundOutline=1;size=15;shadow=0;fillColor=#0050ef;fontColor=#ffffff;strokeColor=#001DBC;" vertex="1" parent="MYMOYsETfxv60rh2h-rH-47">
          <mxGeometry x="230" y="177.5" width="100" height="65" as="geometry" />
        </mxCell>
        <mxCell id="MYMOYsETfxv60rh2h-rH-66" value="" style="endArrow=classic;html=1;rounded=0;exitX=1;exitY=0.5;exitDx=0;exitDy=0;exitPerimeter=0;entryX=0;entryY=0;entryDx=0;entryDy=41.25;entryPerimeter=0;" edge="1" parent="MYMOYsETfxv60rh2h-rH-47" source="MYMOYsETfxv60rh2h-rH-40" target="MYMOYsETfxv60rh2h-rH-58">
          <mxGeometry width="50" height="50" relative="1" as="geometry">
            <mxPoint x="260" y="80" as="sourcePoint" />
            <mxPoint x="310" y="30" as="targetPoint" />
          </mxGeometry>
        </mxCell>
        <mxCell id="MYMOYsETfxv60rh2h-rH-68" value="" style="endArrow=classic;html=1;rounded=0;exitX=1;exitY=0.5;exitDx=0;exitDy=0;exitPerimeter=0;entryX=0;entryY=0.5;entryDx=0;entryDy=0;entryPerimeter=0;" edge="1" parent="MYMOYsETfxv60rh2h-rH-47" source="MYMOYsETfxv60rh2h-rH-40" target="MYMOYsETfxv60rh2h-rH-64">
          <mxGeometry width="50" height="50" relative="1" as="geometry">
            <mxPoint x="310" y="219" as="sourcePoint" />
            <mxPoint x="360" y="170" as="targetPoint" />
          </mxGeometry>
        </mxCell>
        <mxCell id="MYMOYsETfxv60rh2h-rH-69" value="" style="endArrow=classic;html=1;rounded=0;exitX=1;exitY=0.5;exitDx=0;exitDy=0;exitPerimeter=0;entryX=0;entryY=0.5;entryDx=0;entryDy=0;entryPerimeter=0;" edge="1" parent="MYMOYsETfxv60rh2h-rH-47" source="MYMOYsETfxv60rh2h-rH-40" target="MYMOYsETfxv60rh2h-rH-65">
          <mxGeometry width="50" height="50" relative="1" as="geometry">
            <mxPoint x="360" y="249" as="sourcePoint" />
            <mxPoint x="410" y="200" as="targetPoint" />
          </mxGeometry>
        </mxCell>
        <mxCell id="MYMOYsETfxv60rh2h-rH-70" value="" style="endArrow=classic;html=1;rounded=0;entryX=0;entryY=1;entryDx=0;entryDy=-15;entryPerimeter=0;exitX=1;exitY=0;exitDx=0;exitDy=41.25;exitPerimeter=0;" edge="1" parent="MYMOYsETfxv60rh2h-rH-47" source="MYMOYsETfxv60rh2h-rH-58" target="MYMOYsETfxv60rh2h-rH-42">
          <mxGeometry width="50" height="50" relative="1" as="geometry">
            <mxPoint x="260" y="80" as="sourcePoint" />
            <mxPoint x="310" y="30" as="targetPoint" />
          </mxGeometry>
        </mxCell>
        <mxCell id="MYMOYsETfxv60rh2h-rH-71" value="" style="endArrow=classic;html=1;rounded=0;entryX=0;entryY=0.5;entryDx=0;entryDy=0;entryPerimeter=0;exitX=1;exitY=0.5;exitDx=0;exitDy=0;exitPerimeter=0;" edge="1" parent="MYMOYsETfxv60rh2h-rH-47" source="MYMOYsETfxv60rh2h-rH-64" target="MYMOYsETfxv60rh2h-rH-43">
          <mxGeometry width="50" height="50" relative="1" as="geometry">
            <mxPoint x="370" y="113" as="sourcePoint" />
            <mxPoint x="420" y="110" as="targetPoint" />
          </mxGeometry>
        </mxCell>
        <mxCell id="MYMOYsETfxv60rh2h-rH-72" value="" style="endArrow=classic;html=1;rounded=0;exitX=1;exitY=0.5;exitDx=0;exitDy=0;exitPerimeter=0;" edge="1" parent="MYMOYsETfxv60rh2h-rH-47" source="MYMOYsETfxv60rh2h-rH-65">
          <mxGeometry width="50" height="50" relative="1" as="geometry">
            <mxPoint x="500" y="273" as="sourcePoint" />
            <mxPoint x="380" y="210" as="targetPoint" />
          </mxGeometry>
        </mxCell>
        <mxCell id="MYMOYsETfxv60rh2h-rH-93" value="Distributed Workers" style="swimlane;horizontal=0;whiteSpace=wrap;html=1;fontStyle=0" vertex="1" parent="MYMOYsETfxv60rh2h-rH-47">
          <mxGeometry x="190" y="25" width="440" height="225" as="geometry" />
        </mxCell>
      </root>
    </mxGraphModel>
  </diagram>
</mxfile>
